<?xml version="1.0" encoding="UTF-8" standalone="no"?>
<svg width="22px" height="30px" viewBox="0 0 22 30" version="1.1" xmlns="http://www.w3.org/2000/svg" xmlns:xlink="http://www.w3.org/1999/xlink">
    <!-- Generator: Sketch 41.2 (35397) - http://www.bohemiancoding.com/sketch -->
    <title>icon_secure_blue</title>
    <desc>Created with Sketch.</desc>
    <defs></defs>
    <g id="Documentation" stroke="none" stroke-width="1" fill="none" fill-rule="evenodd">
        <g id="Documentation-/-Home" transform="translate(-1083.000000, -1509.000000)">
            <g id="benefits" transform="translate(0.000000, 1298.000000)">
                <g id="benefit" transform="translate(1078.000000, 210.000000)">
                    <g id="icon_secure_blue">
                        <g id="Layer_1">
                            <g id="_Group_">
                                <g id="_Group_2" transform="translate(5.333333, 1.777778)" fill="#5596E6">
                                    <polygon id="_Path_" points="10.1866667 18.9866667 8.28444444 17.0844444 7.11111111 18.2577778 10.1866667 21.3333333 15.7511111 15.7688889 14.5777778 14.5955556"></polygon>
                                    <path d="M17.7777778,9.84355556 L17.7777778,7.11111111 C17.7777778,3.18375289 14.5940249,3.94745964e-16 10.6666667,0 C6.73930845,-1.97372982e-16 3.55555556,3.18375289 3.55555556,7.11111111 L3.55555556,7.11111111 L3.55555556,9.84177778 C1.44416973,11.9663245 0.18001359,14.787921 3.36384176e-14,17.7777778 C-0.00746129526,22.6812809 3.32911248,26.9582136 8.0870712,28.1440581 C12.8450299,29.3299027 17.7985563,27.1191439 20.0932557,22.785698 C22.3879551,18.4522521 21.4326324,13.1125671 17.7777778,9.84355556 L17.7777778,9.84355556 Z M5.33333333,7.11111111 C5.33333333,4.16559245 7.721148,1.77777778 10.6666667,1.77777778 C13.6121853,1.77777778 16,4.16559245 16,7.11111111 L16,8.54933333 C14.3804599,7.60727066 12.5402707,7.11103297 10.6666667,7.11111111 C8.7967577,7.13817507 6.96332559,7.63259059 5.33333333,8.54933333 L5.33333333,7.11111111 L5.33333333,7.11111111 Z M10.6666667,26.6666667 C5.75746889,26.6666667 1.77777778,22.6869756 1.77777778,17.7777778 C1.77777778,12.86858 5.75746889,8.88888889 10.6666667,8.88888889 C15.5758644,8.88888889 19.5555556,12.86858 19.5555556,17.7777778 C19.5555556,20.1352577 18.6190503,22.3961814 16.9520603,24.0631714 C15.2850702,25.7301614 13.0241466,26.6666667 10.6666667,26.6666667 Z" id="_Compound_Path_"></path>
                                </g>
                                <rect id="_Rectangle_" x="0" y="0" width="32" height="32"></rect>
                            </g>
                        </g>
                    </g>
                </g>
            </g>
        </g>
    </g>
</svg>