<?xml version="1.0" encoding="UTF-8" standalone="no"?>
<svg width="30px" height="24px" viewBox="0 0 30 24" version="1.1" xmlns="http://www.w3.org/2000/svg" xmlns:xlink="http://www.w3.org/1999/xlink">
    <!-- Generator: Sketch 41.2 (35397) - http://www.bohemiancoding.com/sketch -->
    <title>icon_manage_blue</title>
    <desc>Created with Sketch.</desc>
    <defs></defs>
    <g id="Documentation" stroke="none" stroke-width="1" fill="none" fill-rule="evenodd">
        <g id="Documentation-/-Home" transform="translate(-750.000000, -1509.000000)">
            <g id="benefits" transform="translate(0.000000, 1298.000000)">
                <g id="benefit" transform="translate(749.000000, 210.000000)">
                    <g id="icon_manage_blue">
                        <g id="Layer_1">
                            <g id="_Group_">
                                <g id="_Group_2" transform="translate(1.777778, 1.777778)" fill="#5596E6">
                                    <path d="M15.7031111,14.2222222 C15.7004085,13.8647882 15.6694977,13.5081251 15.6106667,13.1555556 L17.7777778,11.2586667 L15.9377778,8.23644444 L13.3546667,9.08088889 C12.7307089,8.54131674 12.0138735,8.11964886 11.2391111,7.83644444 L10.6666667,5.33333333 L7.11111111,5.33333333 L6.53866667,7.83288889 C5.76385349,8.11598566 5.04699952,8.53766446 4.42311111,9.07733333 L1.84,8.23822222 L0,11.2586667 L2.16533333,13.1555556 C2.04308676,13.8614128 2.04308676,14.5830316 2.16533333,15.2888889 L0,17.1857778 L1.84,20.208 L4.42311111,19.3635556 C5.04702267,19.9031922 5.76387044,20.3248673 6.53866667,20.608 L7.11111111,23.1111111 L10.6666667,23.1111111 L11.2391111,20.6115556 C12.0139582,20.3285307 12.7308246,19.9068445 13.3546667,19.3671111 L15.9377778,20.2115556 L17.7777778,17.1857778 L15.6124444,15.2888889 C15.6706651,14.9362702 15.7009814,14.5796086 15.7031111,14.2222222 L15.7031111,14.2222222 Z M8.88888889,18.6666667 C6.43429,18.6666667 4.44444444,16.6768211 4.44444444,14.2222222 C4.44444444,11.7676233 6.43429,9.77777778 8.88888889,9.77777778 C11.3434878,9.77777778 13.3333333,11.7676233 13.3333333,14.2222222 C13.3333333,15.4009622 12.8650807,16.531424 12.0315857,17.364919 C11.1980907,18.198414 10.0676288,18.6666667 8.88888889,18.6666667 L8.88888889,18.6666667 Z" id="_Compound_Path_"></path>
                                    <path d="M22.0746667,4.44444444 C22.0733117,4.26572762 22.0578563,4.08739635 22.0284444,3.91111111 L23.1111111,2.96355556 L22.1902222,1.45244444 L20.8977778,1.87377778 C20.5860914,1.60270942 20.2276532,1.39065855 19.84,1.248 L19.5555556,0 L17.7777778,0 L17.4915556,1.24444444 C17.1038853,1.38706703 16.7454408,1.59912157 16.4337778,1.87022222 L15.1431111,1.44888889 L14.2222222,2.96355556 L15.3048889,3.91111111 C15.2437656,4.26403975 15.2437656,4.62484914 15.3048889,4.97777778 L14.2222222,5.92533333 L15.1431111,7.43644444 L16.4337778,7.01511111 C16.7481244,7.28710729 17.1096497,7.49920212 17.5004444,7.64088889 L17.7777778,8.88888889 L19.5555556,8.88888889 L19.8417778,7.64444444 C20.2294651,7.50185786 20.5879158,7.28979963 20.8995556,7.01866667 L22.1902222,7.44 L23.1111111,5.92533333 L22.0284444,4.97777778 C22.0578489,4.80149161 22.0733043,4.62316093 22.0746667,4.44444444 L22.0746667,4.44444444 Z M18.6666667,6.22222222 C17.6848271,6.22222222 16.8888889,5.426284 16.8888889,4.44444444 C16.8888889,3.46260489 17.6848271,2.66666667 18.6666667,2.66666667 C19.6485062,2.66666667 20.4444444,3.46260489 20.4444444,4.44444444 C20.4444444,4.91594043 20.2571434,5.36812516 19.9237454,5.70152317 C19.5903474,6.03492117 19.1381626,6.22222222 18.6666667,6.22222222 Z" id="_Compound_Path_2"></path>
                                    <path d="M27.2,17.7777778 C27.198493,17.5633269 27.1800654,17.3493293 27.1448889,17.1377778 L28.4444444,16 L27.3404444,14.1866667 L25.7902222,14.6933333 C25.416068,14.3684077 24.9859654,14.1142014 24.5208889,13.9431111 L24.1777778,12.4444444 L22.0444444,12.4444444 L21.7013333,13.9431111 C21.2362568,14.1142014 20.8061542,14.3684077 20.432,14.6933333 L18.8817778,14.1866667 L17.7777778,16 L19.0773333,17.1377778 C19.0037941,17.5618727 19.0037941,17.9954607 19.0773333,18.4195556 L17.7777778,19.5555556 L18.8817778,21.3688889 L20.432,20.8622222 C20.8061542,21.1871479 21.2362568,21.4413542 21.7013333,21.6124444 L22.0444444,23.1111111 L24.1777778,23.1111111 L24.5208889,21.6124444 C24.9860677,21.4415697 25.4162075,21.1873414 25.7902222,20.8622222 L27.3404444,21.3688889 L28.4444444,19.5555556 L27.1448889,18.4195556 C27.1801513,18.2074173 27.1985792,17.9928221 27.2,17.7777778 L27.2,17.7777778 Z M23.1111111,20.4444444 C22.0325451,20.4444444 21.0601817,19.794732 20.6474324,18.7982669 C20.234683,17.8018019 20.4628317,16.654821 21.225493,15.8921597 C21.9881544,15.1294984 23.1351352,14.9013497 24.1316003,15.314099 C25.1280653,15.7268484 25.7777778,16.6992118 25.7777778,17.7777778 C25.7777778,19.2505371 24.5838704,20.4444444 23.1111111,20.4444444 L23.1111111,20.4444444 Z" id="_Compound_Path_3"></path>
                                    <ellipse id="_Path_" cx="8.88888889" cy="14.2222222" rx="1.77777778" ry="1.77777778"></ellipse>
                                </g>
                                <rect id="_Rectangle_" x="0" y="0" width="32" height="32"></rect>
                            </g>
                        </g>
                    </g>
                </g>
            </g>
        </g>
    </g>
</svg>