<?xml version="1.0" encoding="UTF-8" standalone="no"?>
<svg width="30px" height="21px" viewBox="0 0 30 21" version="1.1" xmlns="http://www.w3.org/2000/svg" xmlns:xlink="http://www.w3.org/1999/xlink">
    <!-- Generator: Sketch 41.2 (35397) - http://www.bohemiancoding.com/sketch -->
    <title>icon_publish</title>
    <desc>Created with Sketch.</desc>
    <defs></defs>
    <g id="Documentation" stroke="none" stroke-width="1" fill="none" fill-rule="evenodd" opacity="0.400000006">
        <g id="Documentation-/-Home" transform="translate(-1295.000000, -532.000000)">
            <g id="tutorial-cards" transform="translate(72.000000, 408.000000)">
                <g id="icon_publish" transform="translate(1222.000000, 120.000000)">
                    <g id="Layer_1">
                        <g id="_Group_">
                            <path d="M17.7777778,16 L17.7777778,21.3333333 L14.2222222,21.3333333 L14.2222222,16 L10.0906667,16 L16.0177778,9.65155556 L21.6391111,15.7884444 L17.7777778,16 Z M24.7288889,11.6337778 C23.9890295,7.93943628 21.000472,5.11286177 17.2706728,4.57980498 C13.5408737,4.04674819 9.88019246,5.92302439 8.13511111,9.26222222 C4.41661998,9.99492171 1.75063197,13.2769428 1.79555556,17.0666667 C1.79555556,20.9937778 4.97955556,24.8888889 8.90666667,24.8888889 L24.3146667,24.8888889 C27.6130091,24.502282 30.1312179,21.7591722 30.2349461,18.4398698 C30.3386743,15.1205675 27.9966562,12.2255756 24.7288889,11.6337778 L24.7288889,11.6337778 Z" id="_Compound_Path_" fill="#5A6872"></path>
                            <rect id="_Rectangle_" x="0" y="0" width="32" height="32"></rect>
                        </g>
                    </g>
                </g>
            </g>
        </g>
    </g>
</svg>